<svg width="142" height="36" viewBox="0 0 142 36" fill="none" xmlns="http://www.w3.org/2000/svg">
<g clip-path="url(#clip0_2_5)">
<path fill-rule="evenodd" clip-rule="evenodd" d="M0 17.7778C0 11.2829 -2.38419e-07 8.03542 2.0177 6.0177C4.03542 4 7.28286 4 13.7778 4H17.2222C23.7171 4 26.9647 4 28.9822 6.0177C31 8.03542 31 11.2829 31 17.7778V21.2222C31 27.7171 31 30.9647 28.9822 32.9822C26.9647 35 23.7171 35 17.2222 35H13.7778C7.28286 35 4.03542 35 2.0177 32.9822C-2.38419e-07 30.9647 0 27.7171 0 21.2222V17.7778ZM25.8333 11.75C25.8333 13.1767 24.6767 14.3333 23.25 14.3333C21.8233 14.3333 20.6667 13.1767 20.6667 11.75C20.6667 10.3233 21.8233 9.16667 23.25 9.16667C24.6767 9.16667 25.8333 10.3233 25.8333 11.75ZM18.9444 21.2222C18.9444 23.1246 17.4024 24.6667 15.5 24.6667C13.5976 24.6667 12.0556 23.1246 12.0556 21.2222C12.0556 19.3199 13.5976 17.7778 15.5 17.7778C17.4024 17.7778 18.9444 19.3199 18.9444 21.2222ZM22.3889 21.2222C22.3889 25.0268 19.3046 28.1111 15.5 28.1111C11.6954 28.1111 8.61111 25.0268 8.61111 21.2222C8.61111 17.4177 11.6954 14.3333 15.5 14.3333C19.3046 14.3333 22.3889 17.4177 22.3889 21.2222Z" fill="#007AFF"/>
</g>
<path d="M51.974 25.776H45.162L44.07 29H39.416L46.02 10.748H51.168L57.772 29H53.066L51.974 25.776ZM50.83 22.344L48.568 15.662L46.332 22.344H50.83ZM64.2279 16.91C64.7479 16.1127 65.3979 15.4887 66.1779 15.038C66.9579 14.57 67.8246 14.336 68.7779 14.336V19.042H67.5559C66.4466 19.042 65.6146 19.2847 65.0599 19.77C64.5053 20.238 64.2279 21.07 64.2279 22.266V29H59.7819V14.492H64.2279V16.91ZM78.989 25.23V29H76.727C75.115 29 73.8583 28.61 72.957 27.83C72.0557 27.0327 71.605 25.7413 71.605 23.956V18.184H69.837V14.492H71.605V10.956H76.051V14.492H78.963V18.184H76.051V24.008C76.051 24.4413 76.155 24.7533 76.363 24.944C76.571 25.1347 76.9177 25.23 77.403 25.23H78.989ZM83.7015 12.984C82.9215 12.984 82.2802 12.7587 81.7775 12.308C81.2922 11.84 81.0495 11.268 81.0495 10.592C81.0495 9.89867 81.2922 9.32667 81.7775 8.876C82.2802 8.408 82.9215 8.174 83.7015 8.174C84.4642 8.174 85.0882 8.408 85.5735 8.876C86.0762 9.32667 86.3275 9.89867 86.3275 10.592C86.3275 11.268 86.0762 11.84 85.5735 12.308C85.0882 12.7587 84.4642 12.984 83.7015 12.984ZM85.9115 14.492V29H81.4655V14.492H85.9115ZM96.4135 18.184H94.0215V29H89.5755V18.184H87.9635V14.492H89.5755V14.076C89.5755 12.2907 90.0868 10.9387 91.1095 10.02C92.1322 9.084 93.6315 8.616 95.6075 8.616C95.9368 8.616 96.1795 8.62467 96.3355 8.642V12.412C95.4862 12.36 94.8882 12.4813 94.5415 12.776C94.1948 13.0707 94.0215 13.5993 94.0215 14.362V14.492H96.4135V18.184ZM113.323 14.492L104.223 35.89H99.4386L102.767 28.506L96.8646 14.492H101.831L105.185 23.566L108.513 14.492H113.323Z" fill="black"/>
<defs>
<clipPath id="clip0_2_5">
<rect width="31" height="31" fill="white" transform="translate(0 4)"/>
</clipPath>
</defs>
</svg>
